<svg width="256" height="256" viewBox="0 0 256 256" fill="none" xmlns="http://www.w3.org/2000/svg">
<path d="M129.947 152.526L98.7767 152.597C98.3565 152.597 97.9362 152.879 97.7961 153.301L95.4145 159.994C95.2044 160.699 95.6947 161.403 96.3952 161.403H108.513C109.424 161.403 109.914 162.531 109.284 163.165L89.9509 183.385H90.0209L99.9675 214.878C100.178 215.583 99.6873 216.217 98.9869 216.217H89.2504C88.7601 216.217 88.4098 215.935 88.2698 215.512L83.2965 199.378C83.0163 198.392 81.6854 198.392 81.3351 199.308L77.2724 210.651C77.2024 210.862 77.2024 211.074 77.2724 211.285L80.9849 225.024C81.125 225.446 81.5453 225.799 81.9656 225.799H113.346C114.047 225.799 114.537 225.094 114.327 224.46L101.649 184.794C101.509 184.442 101.649 184.019 101.929 183.737L130.718 154.288C131.348 153.654 130.858 152.526 129.947 152.526Z" fill="white"/>
<path d="M93.0331 136.04L74.0505 136.11C73.6303 136.11 73.21 136.392 73.0699 136.815L70.6183 143.508C70.3381 144.213 70.8984 144.917 71.5989 144.917H79.5842C80.2847 144.917 80.775 145.622 80.5649 146.326L57.9398 208.608C57.5896 209.524 56.3288 209.524 55.9785 208.608L39.7277 163.658C39.4476 162.954 40.0079 162.249 40.7084 162.249H48.9038C49.3241 162.249 49.7444 162.531 49.8845 162.954L55.7684 179.158C56.1186 180.074 57.3795 180.074 57.7297 179.158L66.8357 153.935C67.1159 153.231 66.5556 152.526 65.8551 152.526H27.0493C26.3489 152.526 25.8585 153.231 26.0687 153.935L55.9085 237.353C56.2587 238.269 57.5196 238.269 57.8698 237.353L94.0138 137.449C94.2239 136.745 93.7336 136.04 93.0331 136.04Z" fill="white"/>
<path d="M175.351 203C175.913 203 176.399 203.395 176.517 203.948L178.266 211.02C178.321 211.243 178.522 211.4 178.751 211.4H190.499C191.157 211.4 191.692 211.938 191.692 212.6V224.6C191.692 225.263 191.157 225.8 190.499 225.8H127.403C127.345 225.8 127.288 225.794 127.233 225.786C127.275 224.286 127.066 222.74 126.565 221.194L126.21 220.094V212.6C126.21 211.938 126.744 211.401 127.403 211.4H138.09C138.32 211.4 138.52 211.243 138.576 211.02L140.325 203.948C140.443 203.395 140.928 203 141.491 203H175.351ZM228.807 114.2C229.466 114.2 230 114.738 230 115.4V195.8C230 196.462 229.466 197 228.807 197H118.759L115.927 188.222L125.028 179H215.184C215.46 179 215.684 178.776 215.684 178.5V129.1C215.684 128.824 215.46 128.6 215.184 128.6H172.01L170.669 114.2H228.807ZM157.228 183.8C154.922 183.8 153.052 185.68 153.052 188C153.052 190.319 154.922 192.2 157.228 192.2C159.534 192.2 161.403 190.319 161.403 188C161.403 185.68 159.534 183.8 157.228 183.8ZM142.573 128.6H103.279C100.915 125.87 97.4204 124.04 93.0981 124.04H93.0532L85.6489 124.067V115.4C85.6489 114.737 86.1835 114.2 86.8423 114.2H143.913L142.573 128.6ZM202.561 48.2C203.22 48.2 203.754 48.7374 203.754 49.4001V104.6C203.754 105.263 203.22 105.8 202.561 105.8H169.887L168.994 96.2H193.71C193.987 96.1999 194.21 95.9761 194.21 95.7V69.1003C194.21 68.8242 193.987 68.6004 193.71 68.6003H123.131C122.855 68.6005 122.631 68.8243 122.631 69.1003V95.7C122.631 95.976 122.855 96.1998 123.131 96.2H145.586L144.694 105.8H114.281C113.622 105.799 113.088 105.263 113.087 104.6V49.4001C113.087 48.7375 113.622 48.2001 114.281 48.2H202.561ZM129.193 54.2C126.887 54.2001 125.017 56.0806 125.017 58.4001C125.017 60.7196 126.887 62.6002 129.193 62.6003C131.499 62.6003 133.369 60.7196 133.369 58.4001C133.369 56.0806 131.499 54.2 129.193 54.2ZM142.316 54.2C140.01 54.2001 138.14 56.0806 138.14 58.4001C138.14 60.7196 140.01 62.6002 142.316 62.6003C144.622 62.6002 146.491 60.7195 146.491 58.4001C146.491 56.0807 144.622 54.2001 142.316 54.2ZM155.438 54.2C153.132 54.2003 151.263 56.0807 151.263 58.4001C151.263 60.7195 153.132 62.6 155.438 62.6003C157.744 62.6003 159.614 60.7197 159.614 58.4001C159.614 56.0806 157.744 54.2 155.438 54.2Z" fill="white"/>
<path d="M135.063 146.714C134.05 145.888 134.68 144.232 135.979 144.308L150.276 145.149L156.422 78.9838C156.464 78.5396 156.832 78.2001 157.273 78.2001C157.713 78.2001 158.081 78.5395 158.123 78.9838L164.269 145.083L178.48 144.282C179.775 144.209 180.404 145.858 179.397 146.685L158.128 165.498C157.639 165.9 156.939 165.901 156.448 165.501L135.063 146.714Z" fill="white"/>
<path d="M86.6491 29.6C86.0968 29.6 85.6491 30.0477 85.6491 30.6V79C85.6491 79.5523 86.0968 80 86.6491 80H104.737V70.4H95.1929V39.2H136.947H144.105V30.6C144.105 30.0477 143.658 29.6 143.105 29.6H86.6491Z" fill="white"/>
<path d="M229 29.6C229.552 29.6 230 30.0477 230 30.6V79C230 79.5523 229.552 80 229 80H210.912V70.4H220.456V39.2H178.702H171.544V30.6C171.544 30.0477 171.992 29.6 172.544 29.6H229Z" fill="white"/>
</svg>
