<svg width="204" height="200" viewBox="0 0 204 200" fill="none" xmlns="http://www.w3.org/2000/svg">
<path d="M149.074 122.258C149.695 122.258 150.198 122.761 150.198 123.382V173.498C150.198 174.119 149.695 174.622 149.074 174.622H100.893C100.272 174.622 99.7694 174.119 99.7694 173.498V123.382C99.7694 122.761 100.272 122.258 100.893 122.258H149.074Z" fill="white"/>
<path d="M202.316 0C202.936 0 203.439 0.503051 203.439 1.1236V173.498C203.439 174.118 202.936 174.621 202.316 174.621H161.742C161.121 174.621 160.618 174.118 160.618 173.498V1.12359C160.618 0.503047 161.121 0 161.742 0H202.316Z" fill="white"/>
<path d="M89.8969 173.498C89.8968 174.118 89.395 174.621 88.776 174.621H76.8185L71.9946 160.006L89.8969 142.27V173.498Z" fill="white"/>
<path d="M88.776 0.00329178C89.3951 0.00329178 89.8969 0.506343 89.8969 1.12689V124.723C88.1138 123.451 85.9317 122.673 83.5525 122.673H83.5296L64.375 122.714C65.6833 116.615 61.2838 109.767 53.7146 109.767H53.6774L47.0769 109.791V1.12689C47.0769 0.506343 47.5787 0.0032918 48.1978 0.00329178H88.776Z" fill="white"/>
<path d="M149.077 0C149.696 0 150.198 0.503051 150.198 1.1236V108.999C150.198 109.619 149.696 110.122 149.077 110.122H100.85C100.229 110.122 99.7266 109.617 99.7287 108.995L99.8447 75.0603C99.8468 74.4413 100.348 73.9401 100.966 73.94H122.592C123.211 73.94 123.713 73.437 123.713 72.8165V38.8793C123.713 38.2587 123.211 37.7557 122.592 37.7557H100.845C100.226 37.7556 99.7245 37.2524 99.7243 36.6321V1.1236C99.7243 0.503116 100.226 0.000104205 100.845 0H149.077Z" fill="white"/>
<path d="M83.2858 132.177C84.0154 132.177 84.4081 133.071 83.903 133.574L60.8317 156.932C60.6074 157.155 60.4958 157.49 60.608 157.77L70.7682 189.229C70.9363 189.732 70.5432 190.291 69.9821 190.291H44.8336C44.4971 190.291 44.1609 190.012 44.0485 189.677L41.0729 178.78C41.0168 178.613 41.0169 178.445 41.0729 178.277L44.3287 169.28C44.6094 168.554 45.6752 168.554 45.9 169.336L49.8864 182.133C49.9986 182.468 50.2789 182.691 50.6715 182.691H58.4742C59.0355 182.691 59.4286 182.189 59.2604 181.63L51.2897 156.651H51.233L66.7262 140.614C67.2311 140.111 66.8385 139.218 66.109 139.218H56.3971C55.836 139.217 55.4436 138.658 55.6119 138.1L57.5201 132.791C57.6325 132.456 57.9696 132.232 58.3063 132.232L83.2858 132.177Z" fill="white"/>
<path d="M83.2858 132.177C84.0154 132.177 84.4081 133.071 83.903 133.574L60.8317 156.932C60.6074 157.155 60.4958 157.49 60.608 157.77L70.7682 189.229C70.9363 189.732 70.5432 190.291 69.9821 190.291H44.8336C44.4971 190.291 44.1609 190.012 44.0485 189.677L41.0729 178.78C41.0168 178.613 41.0169 178.445 41.0729 178.277L44.3287 169.28C44.6094 168.554 45.6752 168.554 45.9 169.336L49.8864 182.133C49.9986 182.468 50.2789 182.691 50.6715 182.691H58.4742C59.0355 182.691 59.4286 182.189 59.2604 181.63L51.2897 156.651H51.233L66.7262 140.614C67.2311 140.111 66.8385 139.218 66.109 139.218H56.3971C55.836 139.217 55.4436 138.658 55.6119 138.1L57.5201 132.791C57.6325 132.456 57.9696 132.232 58.3063 132.232L83.2858 132.177Z" stroke="white"/>
<path d="M53.7031 119.101C54.2643 119.101 54.6573 119.66 54.4893 120.218L25.5244 199.456C25.2436 200.182 24.233 200.182 23.9521 199.456L0.0390625 133.294C-0.129338 132.736 0.263863 132.177 0.825195 132.177H31.9229C32.4842 132.177 32.9335 132.736 32.709 133.294L25.4121 153.299C25.1314 154.026 24.1206 154.026 23.8398 153.299L19.125 140.447C19.0127 140.112 18.6757 139.888 18.3389 139.888H11.7715C11.2102 139.888 10.7611 140.447 10.9854 141.005L24.0088 176.657C24.2896 177.383 25.2993 177.383 25.5801 176.657L43.7109 127.259C43.8793 126.701 43.487 126.142 42.9258 126.142H36.5264C35.965 126.142 35.5157 125.583 35.7402 125.024L37.7051 119.715C37.8175 119.38 38.1545 119.157 38.4912 119.157L53.7031 119.101Z" fill="white"/>
<path d="M53.7031 119.101C54.2643 119.101 54.6573 119.66 54.4893 120.218L25.5244 199.456C25.2436 200.182 24.233 200.182 23.9521 199.456L0.0390625 133.294C-0.129338 132.736 0.263863 132.177 0.825195 132.177H31.9229C32.4842 132.177 32.9335 132.736 32.709 133.294L25.4121 153.299C25.1314 154.026 24.1206 154.026 23.8398 153.299L19.125 140.447C19.0127 140.112 18.6757 139.888 18.3389 139.888H11.7715C11.2102 139.888 10.7611 140.447 10.9854 141.005L24.0088 176.657C24.2896 177.383 25.2993 177.383 25.5801 176.657L43.7109 127.259C43.8793 126.701 43.487 126.142 42.9258 126.142H36.5264C35.965 126.142 35.5157 125.583 35.7402 125.024L37.7051 119.715C37.8175 119.38 38.1545 119.157 38.4912 119.157L53.7031 119.101Z" stroke="white"/>
</svg>
