<svg width="38" height="37" viewBox="0 0 38 37" fill="none" xmlns="http://www.w3.org/2000/svg">
<path d="M37.6274 6L26.6155 6.02596C26.4671 6.02596 26.3186 6.12981 26.2691 6.28558L25.4277 8.75192C25.3535 9.01154 25.5267 9.27115 25.7742 9.27115H30.0552C30.3769 9.27115 30.5501 9.68654 30.3274 9.92019L23.4976 17.3712H23.5223L27.0362 28.976C27.1105 29.2356 26.9372 29.4692 26.6898 29.4692H23.2501C23.0769 29.4692 22.9532 29.3654 22.9037 29.2096L21.1467 23.2644C21.0477 22.901 20.5775 22.901 20.4538 23.2385L19.0186 27.4183C18.9938 27.4962 18.9938 27.574 19.0186 27.6519L20.3301 32.7144C20.3796 32.8702 20.5281 33 20.6765 33H31.7627C32.0101 33 32.1834 32.7404 32.1091 32.5067L27.6301 17.8904C27.5806 17.7606 27.6301 17.6048 27.7291 17.501L37.8996 6.64904C38.1224 6.41538 37.9491 6 37.6274 6Z" fill="white"/>
<path d="M24.6217 0L17.6472 0.0255569C17.4928 0.0255569 17.3384 0.127784 17.2869 0.281126L16.3861 2.70903C16.2832 2.9646 16.4891 3.22017 16.7464 3.22017H19.6803C19.9377 3.22017 20.1179 3.47574 20.0407 3.73131L11.7279 26.3236C11.5992 26.6558 11.136 26.6558 11.0073 26.3236L5.03656 10.0183C4.93361 9.76274 5.1395 9.50717 5.39686 9.50717H8.40797C8.56239 9.50717 8.71681 9.60939 8.76828 9.76274L10.9301 15.6408C11.0588 15.9731 11.522 15.9731 11.6507 15.6408L14.9964 6.49145C15.0993 6.23588 14.8934 5.98031 14.6361 5.98031H0.378338C0.120977 5.98031 -0.0591746 6.23588 0.0180334 6.49145L10.9816 36.7508C11.1103 37.0831 11.5735 37.0831 11.7022 36.7508L24.982 0.511138C25.0592 0.255569 24.879 0 24.6217 0Z" fill="white"/>
</svg>
