<svg width="42" height="36" viewBox="0 0 42 36" fill="none" xmlns="http://www.w3.org/2000/svg">
<path d="M17.1166 17.8281L10.6385 16.0599V14.9619L16.4394 12.0448L17.1166 5.75L15.8432 10.869L9.06836 14.2169V16.9634L14.5008 18.9799L17.1166 17.8281Z" fill="white"/>
<path d="M0.375977 19.5872L12.742 30.7796V35.42H15.274L14.6417 28.814L0.375977 19.5872Z" fill="white"/>
<path d="M17.1168 19.662L14.483 20.8228L0.744629 16.5295L14.5699 23.6561L15.6816 23.1684L16.4906 24.063L17.5213 35.42H17.9828V22.247L17.1168 21.2896V19.662Z" fill="white"/>
<path d="M24.8804 17.8281L27.4992 18.9799L32.9286 16.9634V14.2169L26.1568 10.869L24.8804 5.75L25.5605 12.0448L31.3585 14.9619V16.0599L24.8804 17.8281Z" fill="white"/>
<path d="M27.3553 28.814L26.7261 35.42H29.258V30.7796L41.6241 19.5872L27.3553 28.814Z" fill="white"/>
<path d="M41.2556 16.5295L27.5172 20.8228L24.8804 19.662V21.2896L24.0144 22.247V35.42H24.4788L25.5096 24.063L26.3186 23.1684L27.4273 23.6561L41.2556 16.5295Z" fill="white"/>
<path d="M19.403 10.7733L20.4637 0.580078L18.1565 11.1054L19.403 12.9513L20.6495 13.801L19.403 10.7733Z" fill="white"/>
<path d="M22.5941 10.7733L21.3506 13.801L22.639 12.9035L23.8406 11.1054L21.5334 0.580078L22.5941 10.7733Z" fill="white"/>
<path d="M20.5205 35.4201H21.4764L20.9999 21.9897L20.5205 35.4201Z" fill="white"/>
</svg>
